<svg xmlns="http://www.w3.org/2000/svg" width="137" height="135"><path fill="#18181D" d="M35.7 110.3c0-.6-.2-1-.7-1.2-.3-.1-.6-.1-1-.1h-1.3v2.9h1.6c.8-.1 1.4-.7 1.4-1.6zm15.4-1.3l-.2.6-1 2.7h2.2l-1-2.7c.1-.3 0-.6 0-.6zm47.5-.1c-1.6 0-2.9 1.3-2.9 3 0 1.8 1.3 3.1 2.9 3.1 1.6 0 2.9-1.4 2.9-3.1 0-1.7-1.3-3-2.9-3zm-23.5-17.9v-52.9c0-5.7-1.4-8.5-6.4-8.5s-6.3 2.9-6.3 8.5v52.9c0 5.6 1.3 8.6 6.3 8.6s6.4-2.9 6.4-8.6zm49.9-73.6l-51.6-16.6c-3.2-1-6.6-1-9.7 0l-51.7 16.6c-7.1 2.3-12 9.4-12 17.3v65.5c0 8 4.9 15 12 17.3l51.6 16.7c3.2 1 6.6 1 9.7 0l51.6-16.7c7.1-2.3 12-9.3 12-17.3v-65.5c.1-7.9-4.8-15-11.9-17.3zm-90.7 20.9c0-7.5 2.5-11.1 9.4-11.1s9.5 3.7 9.5 11.1v5.2h-3.1v-5.4c0-5.7-1.4-8.5-6.4-8.5s-6.3 2.9-6.3 8.5v52.9c0 5.7 1.3 8.6 6.3 8.6s6.4-2.9 6.4-8.6v-5.8h3.1v5.6c0 7.5-2.6 11.1-9.5 11.1s-9.4-3.7-9.4-11.1v-52.5zm-7.2 5.2h-3.1v-5.4c0-5.7-1.4-8.5-6.4-8.5s-6.3 2.9-6.3 8.5v24.2c0 6.5.9 6.8 7.4 7.5 6.3.6 8.5 2.8 8.5 9.4v11.6c0 7.5-2.6 11.1-9.5 11.1s-9.4-3.7-9.4-11.1v-5.6h3.1v5.8c0 5.7 1.3 8.6 6.3 8.6s6.4-2.9 6.4-8.6v-11.7c0-5-1-6.3-6.3-6.8-7.2-.7-9.5-1.4-9.5-9.7v-24.5c0-7.5 2.5-11.1 9.4-11.1s9.5 3.7 9.5 11.1v5.2zm10.3 72.4h-.7c-.7 0-.8-.1-1.1-.6l-1.2-2.2c-.2-.3-.3-.4-.8-.4h-.9v2.3h1v.9h-3.1v-.9h1v-6.2h-1v-.8h3.4c.6 0 1 0 1.5.2.8.3 1.4 1 1.4 2 0 1.1-.6 2-1.6 2.2 0 0 .2.1.3.4l1.1 2c.1.2.3.3.5.3h.2v.8zm8 0h-5.9v-.9h1v-6.2h-1v-.8h5.7v1.8h-1v-.9h-2.6v2.5h2.8v.9h-2.8v2.6h2.8v-1h1v2zm9.6 0h-2.7v-.9h.8l-.6-1.8h-2.8l-.6 1.8h.9v.9h-2.7v-.9h.7l2.5-7h1.3l2.5 7h.7v.9zm7.7 0h-5.8v-.9h1v-6.1h-1v-.9h3.1v.9h-1v6.1h2.8v-1.3h1v2.2zm-3.4-25.1v-52.5c0-7.5 2.4-11.1 9.4-11.1 6.9 0 9.5 3.7 9.5 11.1v52.5c0 7.5-2.6 11.1-9.5 11.1-7 0-9.4-3.7-9.4-11.1zm11.5 19.4h-1v-1.2h-1.8v6.1h1v.9h-3.1v-1h1v-6.1h-1.9v1.2h-1v-2.1h6.8v2.2zm8.6-1.3h-.8l-2.2 3.7v2.5h1v.9h-3.1v-1h1v-2.5l-2.2-3.7h-.8v-.8h2.7v.9h-.8l1.5 2.5c.1.2.2.3.2.3s.1-.2.2-.3l1.5-2.5h-.8v-.9h2.7v.9zm12.9 5.6c0 1.2-2 1.6-3.1 1.6-2.4 0-4.1-1.8-4.1-4.1s1.8-4 4-4c1 0 3 .3 3 1.6v1h-1v-.6c0-.7-1.2-1-1.9-1-1.7 0-2.9 1.2-2.9 3 0 1.9 1.3 3.2 3 3.2.6 0 2-.2 2-.9v-.6h1v.8zm6.3 1.6c-2.3 0-4.1-1.8-4.1-4.1s1.8-4 4.1-4 4.1 1.8 4.1 4-1.8 4.1-4.1 4.1zm5.6-25.3c0 7.5-2.6 11.1-9.5 11.1s-9.4-3.7-9.4-11.1v-62.9h3.1v63.1c0 5.7 1.3 8.6 6.3 8.6s6.4-2.9 6.4-8.6v-63.1h3.1v62.9zm2 25.1h-1.2v-1.2h1.2v1.2zm22.6-85.6h-8.4v70.9h-3.1v-70.9h-8.3v-2.5h19.8v2.5z"/></svg>