<svg xmlns="http://www.w3.org/2000/svg" width="652" height="405.5" preserveAspectRatio="none"><path fill="#fff" d="M304.1 403.2l-246.4-50c-34.2-6.9-57.7-28.1-57.7-52v-196.8c0-24 23.5-45.1 57.6-52l246.3-50c15.1-3.1 31.3-3.1 46.5 0l245.2 50c34 6.9 56.4 28.1 56.4 52v196.8c0 24-22.4 45.1-56.4 52l-245.7 50c-15.1 3.1-30.7 3.1-45.8 0"/><path fill="#fff" stroke="#E9E8E8" stroke-miterlimit="10" d="M305.5 390.6l-231-46.9c-32-6.5-54-26.3-54-48.8v-184.3c0-22.5 22.1-42.3 54-48.8l230.8-46.9c14.2-2.9 29.4-2.9 43.6 0l230.3 46.9c31.8 6.5 53.3 26.3 53.3 48.8v184.4c0 22.5-21.4 42.3-53.3 48.8l-230.5 46.9c-14.1 2.8-29 2.8-43.2-.1"/></svg>