<svg xmlns="http://www.w3.org/2000/svg" width="96.7" height="96.7"><path fill="#FF4338" d="M12.4 0h71.9c6.8 0 12.4 5.6 12.4 12.4v71.9c0 6.8-5.6 12.4-12.4 12.4h-71.9c-6.8 0-12.4-5.6-12.4-12.4v-71.9c0-6.8 5.6-12.4 12.4-12.4zm58.1 10.7c-2.4 0-4.4 2-4.4 4.4v10.4c0 2.4 2 4.4 4.4 4.4h10.9c2.4 0 4.4-2 4.4-4.4v-10.4c0-2.4-2-4.4-4.4-4.4h-10.9zm15.3 30.2h-8.5c.8 2.6 1.2 5.4 1.2 8.3 0 16.1-13.5 29.1-30.1 29.1s-30.1-13-30.1-29.1c0-2.9.4-5.7 1.2-8.3h-8.9v40.9c0 2.1 1.7 3.8 3.8 3.8h67.3c2.1 0 3.8-1.7 3.8-3.8v-40.9h.3zm-37.4-11.6c-10.7 0-19.4 8.5-19.4 18.8 0 10.4 8.7 18.9 19.4 18.9s19.4-8.4 19.4-18.8c.1-10.4-8.6-18.9-19.4-18.9z"/></svg>