<svg xmlns="http://www.w3.org/2000/svg" width="105.6" height="88.8"><path fill="#FF4338" d="M106.1 11.7c-3.9 1.7-8.1 2.9-12.5 3.4 4.5-2.7 8-7 9.6-12.1-4.2 2.5-8.9 4.3-13.9 5.3-4-4.2-9.7-6.9-15.9-6.9-12.1 0-21.8 9.8-21.8 21.8 0 1.7.2 3.4.6 5-18.1-.9-34.2-9.6-45-22.8-1.9 3.2-3 7-3 11 0 7.6 3.9 14.3 9.7 18.2-3.6-.1-6.9-1.1-9.9-2.7v.3c0 10.6 7.5 19.4 17.5 21.4-1.8.5-3.8.8-5.8.8-1.4 0-2.8-.1-4.1-.4 2.8 8.7 10.8 15 20.4 15.2-7.5 5.9-16.9 9.3-27.1 9.3-1.8 0-3.5-.1-5.2-.3 9.6 6.2 21.1 9.8 33.4 9.8 40.2 0 62.1-33.3 62.1-62.1 0-.9 0-1.9-.1-2.8 4.3-3.2 8.1-7 11-11.4z"/></svg>