<?xml version="1.0" encoding="utf-8"?>
<!-- Generator: Adobe Illustrator 18.0.0, SVG Export Plug-In . SVG Version: 6.00 Build 0)  -->
<!DOCTYPE svg PUBLIC "-//W3C//DTD SVG 1.1//EN" "http://www.w3.org/Graphics/SVG/1.1/DTD/svg11.dtd">
<svg version="1.1" xmlns="http://www.w3.org/2000/svg" xmlns:xlink="http://www.w3.org/1999/xlink" x="0px" y="0px" width="41.6px"
	 height="16.2px" viewBox="0 0 41.6 16.2" enable-background="new 0 0 41.6 16.2" xml:space="preserve">
<g id="arrowtail">
	<polygon fill="#EF473D" points="4.1,16.2 0,16.1 5.2,9.8 2.5,9.8 2.5,6.3 5.2,6.3 0,0 4.1,0 9.3,6.3 10.9,6.3 5.7,0 9.8,0 15,6.3 
		16.7,6.3 11.4,0 15.5,0 20.7,6.3 22.3,6.3 17.1,0 21.2,0 26.4,6.3 41.6,6.4 41.6,9.8 26.4,9.8 21.2,16.1 17.1,16.1 22.3,9.8 
		20.7,9.8 15.5,16.1 11.4,16.1 16.7,9.8 15,9.8 9.8,16.2 5.7,16.2 10.9,9.8 9.3,9.8 	"/>
</g>
<g id="arrowhead">
</g>
</svg>
