<?xml version="1.0" encoding="utf-8"?>
<!-- Generator: Adobe Illustrator 18.0.0, SVG Export Plug-In . SVG Version: 6.00 Build 0)  -->
<!DOCTYPE svg PUBLIC "-//W3C//DTD SVG 1.1//EN" "http://www.w3.org/Graphics/SVG/1.1/DTD/svg11.dtd">
<svg version="1.1" id="Isolation_Mode" xmlns="http://www.w3.org/2000/svg" xmlns:xlink="http://www.w3.org/1999/xlink" x="0px"
	 y="0px" width="43px" height="55px" viewBox="0 0 43 55" enable-background="new 0 0 43 55" xml:space="preserve">
<path fill="#18181D" d="M7.6,0H0.2C7.1,8.8,14.3,18,22,27.5L0,55h7.6l21.9-27.5L7.6,0z M6.5,52.7H4.7l20.1-25.2
	c-0.8-1-3.7-4.6-8.7-10.9S7.3,5.5,4.7,2.2h1.7l20.2,25.3L6.5,52.7z M21.1,0h-7.4c9.2,11.8,16.5,20.9,21.7,27.5L13.5,55h7.6L43,27.5
	L21.1,0z M19.9,52.7h-1.6l20.1-25.2C31.9,19.4,25.2,11,18.3,2.2h1.6L40,27.5L19.9,52.7z"/>
</svg>
