<?xml version="1.0" encoding="utf-8"?>
<!-- Generator: Adobe Illustrator 17.1.0, SVG Export Plug-In . SVG Version: 6.00 Build 0)  -->
<!DOCTYPE svg PUBLIC "-//W3C//DTD SVG 1.1//EN" "http://www.w3.org/Graphics/SVG/1.1/DTD/svg11.dtd">
<svg version="1.1" id="Isolation_Mode" xmlns="http://www.w3.org/2000/svg" xmlns:xlink="http://www.w3.org/1999/xlink" x="0px"
	 y="0px" width="43px" height="55px" viewBox="0 0 43 55" enable-background="new 0 0 43 55" xml:space="preserve">
<path fill="#FFFFFF" d="M35.4,55h7.5C35.9,46.2,28.7,37,21,27.5L43,0l-7.6,0L13.4,27.5L35.4,55z M36.5,2.3h1.7L18.1,27.5
	c0.8,1,3.7,4.6,8.7,10.9c5,6.3,8.8,11.1,11.4,14.4h-1.7L16.3,27.5L36.5,2.3z M21.9,55h7.4C20.1,43.2,12.9,34.1,7.6,27.5L29.5,0
	l-7.6,0L0,27.5L21.9,55z M23.1,2.3h1.6L4.6,27.5c6.5,8.1,13.2,16.5,20.1,25.3h-1.6L3,27.5L23.1,2.3z"/>
</svg>
