<?xml version="1.0" encoding="utf-8"?>
<!-- Generator: Adobe Illustrator 17.1.0, SVG Export Plug-In . SVG Version: 6.00 Build 0)  -->
<!DOCTYPE svg PUBLIC "-//W3C//DTD SVG 1.1//EN" "http://www.w3.org/Graphics/SVG/1.1/DTD/svg11.dtd">
<svg version="1.1" id="Isolation_Mode" xmlns="http://www.w3.org/2000/svg" xmlns:xlink="http://www.w3.org/1999/xlink" x="0px"
	 y="0px" width="137px" height="135px" viewBox="0 0 137 135" enable-background="new 0 0 137 135" xml:space="preserve">
<g>
	<g>
		<path fill="#18181D" d="M35.7,110.3c0-0.6-0.2-1-0.7-1.2c-0.3-0.1-0.6-0.1-1-0.1h-1.3v2.9h1.6C35.1,111.8,35.7,111.2,35.7,110.3z
			 M51.1,109L51.1,109c0,0-0.1,0.3-0.2,0.6l-1,2.7h2.2l-1-2.7C51.2,109.3,51.1,109,51.1,109z M98.6,108.9c-1.6,0-2.9,1.3-2.9,3
			c0,1.8,1.3,3.1,2.9,3.1c1.6,0,2.9-1.4,2.9-3.1C101.5,110.2,100.2,108.9,98.6,108.9z M75.1,91V38.1c0-5.7-1.4-8.5-6.4-8.5
			c-5,0-6.3,2.9-6.3,8.5V91c0,5.6,1.3,8.6,6.3,8.6C73.7,99.6,75.1,96.7,75.1,91z M125,17.4L73.4,0.8c-3.2-1-6.6-1-9.7,0L12,17.4
			C4.9,19.7,0,26.8,0,34.7v65.5c0,8,4.9,15,12,17.3l51.6,16.7c3.2,1,6.6,1,9.7,0l51.6-16.7c7.1-2.3,12-9.3,12-17.3V34.7
			C137,26.8,132.1,19.7,125,17.4z M34.3,38.3c0-7.5,2.5-11.1,9.4-11.1c6.9,0,9.5,3.7,9.5,11.1v5.2h-3.1v-5.4c0-5.7-1.4-8.5-6.4-8.5
			c-5,0-6.3,2.9-6.3,8.5V91c0,5.7,1.3,8.6,6.3,8.6c5,0,6.4-2.9,6.4-8.6v-5.8h3.1v5.6c0,7.5-2.6,11.1-9.5,11.1
			c-6.9,0-9.4-3.7-9.4-11.1V38.3z M27.1,43.5h-3.1v-5.4c0-5.7-1.4-8.5-6.4-8.5c-5,0-6.3,2.9-6.3,8.5v24.2c0,6.5,0.9,6.8,7.4,7.5
			c6.3,0.6,8.5,2.8,8.5,9.4v11.6c0,7.5-2.6,11.1-9.5,11.1c-6.9,0-9.4-3.7-9.4-11.1v-5.6h3.1V91c0,5.7,1.3,8.6,6.3,8.6
			c5,0,6.4-2.9,6.4-8.6V79.3c0-5-1-6.3-6.3-6.8c-7.2-0.7-9.5-1.4-9.5-9.7V38.3c0-7.5,2.5-11.1,9.4-11.1c6.9,0,9.5,3.7,9.5,11.1V43.5
			z M37.4,115.9h-0.7c-0.7,0-0.8-0.1-1.1-0.6l-1.2-2.2c-0.2-0.3-0.3-0.4-0.8-0.4h-0.9v2.3h1v0.9h-3.1V115h1v-6.2h-1V108H34
			c0.6,0,1,0,1.5,0.2c0.8,0.3,1.4,1,1.4,2c0,1.1-0.6,2-1.6,2.2v0c0,0,0.2,0.1,0.3,0.4l1.1,2c0.1,0.2,0.3,0.3,0.5,0.3h0.2V115.9z
			 M45.4,115.9h-5.9V115h1v-6.2h-1V108h5.7v1.8h-1v-0.9h-2.6v2.5h2.8v0.9h-2.8v2.6h2.8v-1h1V115.9z M55,115.9h-2.7V115h0.8l-0.6-1.8
			h-2.8l-0.6,1.8H50v0.9h-2.7V115H48l2.5-7h1.3l2.5,7H55V115.9z M62.7,115.9h-5.8V115h1v-6.1h-1V108H60v0.9h-1v6.1h2.8v-1.3h1V115.9
			z M59.3,90.8V38.3c0-7.5,2.4-11.1,9.4-11.1c6.9,0,9.5,3.7,9.5,11.1v52.5c0,7.5-2.6,11.1-9.5,11.1C61.7,101.9,59.3,98.2,59.3,90.8z
			 M70.8,110.2h-1v-1.2H68v6.1h1v0.9h-3.1V115h1v-6.1H65v1.2h-1V108h6.8V110.2z M79.4,108.9h-0.8l-2.2,3.7v2.5h1v0.9h-3.1V115h1
			v-2.5l-2.2-3.7h-0.8V108h2.7v0.9h-0.8l1.5,2.5c0.1,0.2,0.2,0.3,0.2,0.3h0c0,0,0.1-0.2,0.2-0.3l1.5-2.5h-0.8V108h2.7V108.9z
			 M92.3,114.5c0,1.2-2,1.6-3.1,1.6c-2.4,0-4.1-1.8-4.1-4.1c0-2.3,1.8-4,4-4c1,0,3,0.3,3,1.6v1h-1v-0.6c0-0.7-1.2-1-1.9-1
			c-1.7,0-2.9,1.2-2.9,3c0,1.9,1.3,3.2,3,3.2c0.6,0,2-0.2,2-0.9v-0.6h1V114.5z M98.6,116.1c-2.3,0-4.1-1.8-4.1-4.1
			c0-2.3,1.8-4,4.1-4c2.3,0,4.1,1.8,4.1,4C102.7,114.2,100.9,116.1,98.6,116.1z M104.2,90.8c0,7.5-2.6,11.1-9.5,11.1
			s-9.4-3.7-9.4-11.1V27.9h3.1V91c0,5.7,1.3,8.6,6.3,8.6c5,0,6.4-2.9,6.4-8.6V27.9h3.1V90.8z M106.2,115.9h-1.2v-1.2h1.2V115.9z
			 M128.8,30.3h-8.4v70.9h-3.1V30.3H109v-2.5h19.8V30.3z"/>
	</g>
</g>
</svg>
