<?xml version="1.0" encoding="utf-8"?>
<!-- Generator: Adobe Illustrator 18.0.0, SVG Export Plug-In . SVG Version: 6.00 Build 0)  -->
<!DOCTYPE svg PUBLIC "-//W3C//DTD SVG 1.1//EN" "http://www.w3.org/Graphics/SVG/1.1/DTD/svg11.dtd">
<svg version="1.1" id="Layer_2" xmlns="http://www.w3.org/2000/svg" xmlns:xlink="http://www.w3.org/1999/xlink" x="0px" y="0px"
	 width="652px" height="405.5px" viewBox="0 0 652 405.5" enable-background="new 0 0 652 405.5" xml:space="preserve">
<path fill="#FFFFFF" d="M304.1,403.2l-246.4-50C23.5,346.3,0,325.1,0,301.2V104.4c0-24,23.5-45.1,57.6-52l246.3-50
	c15.1-3.1,31.3-3.1,46.5,0l245.2,50c34,6.9,56.4,28.1,56.4,52v196.8c0,24-22.4,45.1-56.4,52l-245.7,50
	C334.8,406.3,319.2,406.3,304.1,403.2"/>
<path fill="#FFFFFF" stroke="#E9E8E8" stroke-miterlimit="10" d="M305.5,390.6l-231-46.9c-32-6.5-54-26.3-54-48.8V110.6
	c0-22.5,22.1-42.3,54-48.8l230.8-46.9c14.2-2.9,29.4-2.9,43.6,0l230.3,46.9c31.8,6.5,53.3,26.3,53.3,48.8V295
	c0,22.5-21.4,42.3-53.3,48.8l-230.5,46.9C334.6,393.5,319.7,393.5,305.5,390.6"/>
</svg>
