<?xml version="1.0" encoding="utf-8"?>
<!-- Generator: Adobe Illustrator 18.0.0, SVG Export Plug-In . SVG Version: 6.00 Build 0)  -->
<!DOCTYPE svg PUBLIC "-//W3C//DTD SVG 1.1//EN" "http://www.w3.org/Graphics/SVG/1.1/DTD/svg11.dtd">
<svg version="1.1" xmlns="http://www.w3.org/2000/svg" xmlns:xlink="http://www.w3.org/1999/xlink" x="0px" y="0px" width="96.7px"
	 height="96.7px" viewBox="0 0 96.7 96.7" enable-background="new 0 0 96.7 96.7" xml:space="preserve">
<g id="instagram">
	<path fill-rule="evenodd" clip-rule="evenodd" fill="#4B4B50" d="M12.4,0h71.9c6.8,0,12.4,5.6,12.4,12.4v71.9
		c0,6.8-5.6,12.4-12.4,12.4H12.4C5.6,96.7,0,91.1,0,84.3V12.4C0,5.6,5.6,0,12.4,0L12.4,0z M70.5,10.7c-2.4,0-4.4,2-4.4,4.4v10.4
		c0,2.4,2,4.4,4.4,4.4h10.9c2.4,0,4.4-2,4.4-4.4V15.1c0-2.4-2-4.4-4.4-4.4H70.5L70.5,10.7z M85.8,40.9h-8.5c0.8,2.6,1.2,5.4,1.2,8.3
		c0,16.1-13.5,29.1-30.1,29.1c-16.6,0-30.1-13-30.1-29.1c0-2.9,0.4-5.7,1.2-8.3h-8.9v40.9c0,2.1,1.7,3.8,3.8,3.8h67.3
		c2.1,0,3.8-1.7,3.8-3.8V40.9L85.8,40.9z M48.4,29.3C37.7,29.3,29,37.8,29,48.1C29,58.5,37.7,67,48.4,67c10.7,0,19.4-8.4,19.4-18.8
		C67.9,37.8,59.2,29.3,48.4,29.3z"/>
</g>
<g id="pinterest">
</g>
<g id="twitter">
</g>
<g id="facebook">
</g>
</svg>
