<?xml version="1.0" encoding="utf-8"?>
<!-- Generator: Adobe Illustrator 18.0.0, SVG Export Plug-In . SVG Version: 6.00 Build 0)  -->
<!DOCTYPE svg PUBLIC "-//W3C//DTD SVG 1.1//EN" "http://www.w3.org/Graphics/SVG/1.1/DTD/svg11.dtd">
<svg version="1.1" xmlns="http://www.w3.org/2000/svg" xmlns:xlink="http://www.w3.org/1999/xlink" x="0px" y="0px" width="77.4px"
	 height="99.9px" viewBox="0 0 77.4 99.9" enable-background="new 0 0 77.4 99.9" xml:space="preserve">
<g id="instagram">
</g>
<g id="pinterest">
	<path fill="#4B4B50" d="M41,0C13.8,0,0,19.6,0,35.9c0,9.9,3.7,18.7,11.8,21.9c1.3,0.5,2.5,0,2.9-1.4c0.3-1,0.9-3.5,1.2-4.6
		c0.4-1.4,0.2-1.9-0.8-3.2c-2.3-2.7-3.8-6.3-3.8-11.3C11.2,22.8,22,9.8,39.4,9.8c15.4,0,23.9,9.4,23.9,22c0,16.6-7.3,30.5-18.2,30.5
		c-6,0-10.5-5-9.1-11.1c1.7-7.3,5.1-15.1,5.1-20.4c0-4.7-2.5-8.6-7.7-8.6c-6.1,0-11.1,6.4-11.1,14.9c0,5.4,1.8,9.1,1.8,9.1
		s-6.3,26.6-7.4,31.3c-2.2,9.3-0.3,20.7-0.2,21.8c0.1,0.7,1,0.8,1.4,0.3c0.6-0.7,7.9-9.8,10.4-18.8c0.7-2.6,4-15.8,4-15.8
		c2,3.8,7.8,7.2,14,7.2c18.5,0,31-16.8,31-39.3C77.4,15.9,62.9,0,41,0z"/>
</g>
<g id="twitter">
</g>
<g id="facebook">
</g>
</svg>
