<?xml version="1.0" encoding="utf-8"?>
<!-- Generator: Adobe Illustrator 18.0.0, SVG Export Plug-In . SVG Version: 6.00 Build 0)  -->
<!DOCTYPE svg PUBLIC "-//W3C//DTD SVG 1.1//EN" "http://www.w3.org/Graphics/SVG/1.1/DTD/svg11.dtd">
<svg version="1.1" xmlns="http://www.w3.org/2000/svg" xmlns:xlink="http://www.w3.org/1999/xlink" x="0px" y="0px" width="105.6px"
	 height="88.8px" viewBox="0 0 105.6 88.8" enable-background="new 0 0 105.6 88.8" xml:space="preserve">
<g id="instagram">
</g>
<g id="pinterest">
</g>
<g id="twitter">
	<path fill="#4B4B50" d="M106.1,11.7c-3.9,1.7-8.1,2.9-12.5,3.4c4.5-2.7,8-7,9.6-12.1c-4.2,2.5-8.9,4.3-13.9,5.3
		c-4-4.2-9.7-6.9-15.9-6.9c-12.1,0-21.8,9.8-21.8,21.8c0,1.7,0.2,3.4,0.6,5c-18.1-0.9-34.2-9.6-45-22.8c-1.9,3.2-3,7-3,11
		c0,7.6,3.9,14.3,9.7,18.2c-3.6-0.1-6.9-1.1-9.9-2.7c0,0.1,0,0.2,0,0.3c0,10.6,7.5,19.4,17.5,21.4c-1.8,0.5-3.8,0.8-5.8,0.8
		c-1.4,0-2.8-0.1-4.1-0.4c2.8,8.7,10.8,15,20.4,15.2c-7.5,5.9-16.9,9.3-27.1,9.3c-1.8,0-3.5-0.1-5.2-0.3C9.3,84.4,20.8,88,33.1,88
		c40.2,0,62.1-33.3,62.1-62.1c0-0.9,0-1.9-0.1-2.8C99.4,19.9,103.2,16.1,106.1,11.7z"/>
</g>
<g id="facebook">
</g>
</svg>
